<svg width="32" height="32" viewBox="0 0 32 32" fill="none" xmlns="http://www.w3.org/2000/svg">
<path d="M28.416 3.58503C28.1645 3.33369 27.8505 3.15395 27.5065 3.0643C27.1624 2.97466 26.8006 2.97836 26.4585 3.07503H26.4397L2.44724 10.355C2.05668 10.4673 1.70961 10.696 1.45223 11.0105C1.19486 11.325 1.0394 11.7104 1.00655 12.1155C0.973697 12.5205 1.06502 12.926 1.26835 13.2778C1.47169 13.6297 1.77738 13.9112 2.14474 14.085L12.8472 19.1538L17.916 29.8563C18.076 30.199 18.3308 30.4888 18.6501 30.6915C18.9695 30.8941 19.3402 31.0012 19.7185 31C19.776 31 19.8335 30.9975 19.891 30.9925C20.2946 30.9598 20.6786 30.8045 20.9914 30.5473C21.3042 30.2902 21.5309 29.9435 21.641 29.5538L28.916 5.56128C28.916 5.55503 28.916 5.54878 28.916 5.54253C29.0139 5.20123 29.0192 4.84002 28.9313 4.496C28.8435 4.15198 28.6656 3.83756 28.416 3.58503ZM19.7297 28.9813L19.7235 28.9988L14.8035 18.6125L20.7085 12.7063C20.8881 12.5172 20.9868 12.2655 20.9834 12.0047C20.9801 11.7439 20.875 11.4948 20.6906 11.3104C20.5062 11.126 20.2571 11.0209 19.9963 11.0176C19.7355 11.0142 19.4838 11.1129 19.2947 11.2925L13.3885 17.1975L3.00099 12.2775H3.01849L27.001 5.00003L19.7297 28.9813Z" fill="#2E3F83"/>
</svg>
