<svg width="70" height="70" viewBox="0 0 70 70" fill="none" xmlns="http://www.w3.org/2000/svg">
<circle opacity="0.4" cx="35" cy="35" r="35" fill="#D1E4FF"/>
<path fill-rule="evenodd" clip-rule="evenodd" d="M20.7586 17.8125C20.4309 17.8125 20.1166 17.9771 19.8849 18.2701C19.6531 18.5632 19.5229 18.9606 19.5229 19.375V22.5C19.5229 22.9144 19.6531 23.3118 19.8849 23.6049C20.1166 23.8979 20.4309 24.0625 20.7586 24.0625H23.2298C23.5575 24.0625 23.8718 23.8979 24.1035 23.6049C24.3352 23.3118 24.4654 22.9144 24.4654 22.5V19.375C24.4654 18.9606 24.3352 18.5632 24.1035 18.2701C23.8718 17.9771 23.5575 17.8125 23.2298 17.8125H20.7586ZM23.2298 19.375H20.7586V22.5H23.2298V19.375Z" fill="#00549F"/>
<path d="M28.1719 20.9375C28.1719 20.5231 28.3021 20.1257 28.5338 19.8326C28.7655 19.5396 29.0798 19.375 29.4075 19.375H51.6486C51.9763 19.375 52.2906 19.5396 52.5223 19.8326C52.754 20.1257 52.8842 20.5231 52.8842 20.9375C52.8842 21.3519 52.754 21.7493 52.5223 22.0424C52.2906 22.3354 51.9763 22.5 51.6486 22.5H29.4075C29.0798 22.5 28.7655 22.3354 28.5338 22.0424C28.3021 21.7493 28.1719 21.3519 28.1719 20.9375ZM29.4075 31.875C29.0798 31.875 28.7655 32.0396 28.5338 32.3326C28.3021 32.6257 28.1719 33.0231 28.1719 33.4375C28.1719 33.8519 28.3021 34.2493 28.5338 34.5424C28.7655 34.8354 29.0798 35 29.4075 35H51.6486C51.9763 35 52.2906 34.8354 52.5223 34.5424C52.754 34.2493 52.8842 33.8519 52.8842 33.4375C52.8842 33.0231 52.754 32.6257 52.5223 32.3326C52.2906 32.0396 51.9763 31.875 51.6486 31.875H29.4075ZM29.4075 44.375C29.0798 44.375 28.7655 44.5396 28.5338 44.8326C28.3021 45.1257 28.1719 45.5231 28.1719 45.9375C28.1719 46.3519 28.3021 46.7493 28.5338 47.0424C28.7655 47.3354 29.0798 47.5 29.4075 47.5H51.6486C51.9763 47.5 52.2906 47.3354 52.5223 47.0424C52.754 46.7493 52.8842 46.3519 52.8842 45.9375C52.8842 45.5231 52.754 45.1257 52.5223 44.8326C52.2906 44.5396 51.9763 44.375 51.6486 44.375H29.4075Z" fill="#00549F"/>
<path fill-rule="evenodd" clip-rule="evenodd" d="M19.5229 31.875C19.5229 31.4606 19.6531 31.0632 19.8849 30.7701C20.1166 30.4771 20.4309 30.3125 20.7586 30.3125H23.2298C23.5575 30.3125 23.8718 30.4771 24.1035 30.7701C24.3352 31.0632 24.4654 31.4606 24.4654 31.875V35C24.4654 35.4144 24.3352 35.8118 24.1035 36.1049C23.8718 36.3979 23.5575 36.5625 23.2298 36.5625H20.7586C20.4309 36.5625 20.1166 36.3979 19.8849 36.1049C19.6531 35.8118 19.5229 35.4144 19.5229 35V31.875ZM20.7586 31.875H23.2298V35H20.7586V31.875ZM20.7586 42.8125C20.4309 42.8125 20.1166 42.9771 19.8849 43.2701C19.6531 43.5632 19.5229 43.9606 19.5229 44.375V47.5C19.5229 47.9144 19.6531 48.3118 19.8849 48.6049C20.1166 48.8979 20.4309 49.0625 20.7586 49.0625H23.2298C23.5575 49.0625 23.8718 48.8979 24.1035 48.6049C24.3352 48.3118 24.4654 47.9144 24.4654 47.5V44.375C24.4654 43.9606 24.3352 43.5632 24.1035 43.2701C23.8718 42.9771 23.5575 42.8125 23.2298 42.8125H20.7586ZM23.2298 44.375H20.7586V47.5H23.2298V44.375Z" fill="#00549F"/>
</svg>
