<svg width="32" height="32" viewBox="0 0 32 32" fill="none" xmlns="http://www.w3.org/2000/svg">
<path d="M11.9356 4.5625H6.62687C5.48675 4.5625 4.5625 5.48675 4.5625 6.62687V11.9356C4.5625 13.0757 5.48675 14 6.62687 14H11.9356C13.0757 14 14 13.0757 14 11.9356V6.62687C14 5.48675 13.0757 4.5625 11.9356 4.5625Z" stroke="white" stroke-width="2" stroke-linecap="round" stroke-linejoin="round"/>
<path d="M25.3731 4.5625H20.0644C18.9243 4.5625 18 5.48675 18 6.62687V11.9356C18 13.0757 18.9243 14 20.0644 14H25.3731C26.5132 14 27.4375 13.0757 27.4375 11.9356V6.62687C27.4375 5.48675 26.5132 4.5625 25.3731 4.5625Z" stroke="white" stroke-width="2" stroke-linecap="round" stroke-linejoin="round"/>
<path d="M11.9356 18H6.62687C5.48675 18 4.5625 18.9243 4.5625 20.0644V25.3731C4.5625 26.5132 5.48675 27.4375 6.62687 27.4375H11.9356C13.0757 27.4375 14 26.5132 14 25.3731V20.0644C14 18.9243 13.0757 18 11.9356 18Z" stroke="white" stroke-width="2" stroke-linecap="round" stroke-linejoin="round"/>
<path d="M25.3731 18H20.0644C18.9243 18 18 18.9243 18 20.0644V25.3731C18 26.5132 18.9243 27.4375 20.0644 27.4375H25.3731C26.5132 27.4375 27.4375 26.5132 27.4375 25.3731V20.0644C27.4375 18.9243 26.5132 18 25.3731 18Z" stroke="white" stroke-width="2" stroke-linecap="round" stroke-linejoin="round"/>
</svg>
