<svg width="13" height="13" viewBox="0 0 13 13" fill="none" xmlns="http://www.w3.org/2000/svg">
<path d="M7.50461 11.5414L7.50461 2.69847L11.3679 6.5618C11.6767 6.87055 12.1834 6.87055 12.4921 6.5618C12.5655 6.48856 12.6237 6.40157 12.6635 6.30579C12.7032 6.21002 12.7236 6.10736 12.7236 6.00367C12.7236 5.89999 12.7032 5.79733 12.6635 5.70156C12.6237 5.60579 12.5655 5.51879 12.4921 5.44555L7.27503 0.228467C7.20179 0.155076 7.1148 0.0968511 7.01903 0.0571241C6.92326 0.0173972 6.82059 -0.00305176 6.71691 -0.00305176C6.61322 -0.00305176 6.51056 0.0173972 6.41479 0.0571241C6.31902 0.0968511 6.23202 0.155076 6.15878 0.228467L0.941698 5.44555C0.868404 5.51884 0.810266 5.60586 0.770599 5.70162C0.730932 5.79738 0.710517 5.90002 0.710517 6.00367C0.710517 6.10733 0.730932 6.20997 0.770599 6.30573C0.810266 6.40149 0.868404 6.48851 0.941698 6.5618C1.01499 6.63509 1.10201 6.69323 1.19777 6.7329C1.29353 6.77257 1.39617 6.79298 1.49982 6.79298C1.60348 6.79298 1.70612 6.77257 1.80188 6.7329C1.89764 6.69323 1.98466 6.63509 2.05795 6.5618L5.92128 2.69847L5.92128 11.5414C5.92128 11.9768 6.27753 12.333 6.71295 12.333C7.14837 12.333 7.50461 11.9768 7.50461 11.5414Z" fill="#28A745"/>
</svg>
