<svg width="17" height="20" viewBox="0 0 17 20" fill="none" xmlns="http://www.w3.org/2000/svg">
<path d="M11.6584 19.9H11.6587C12.5418 19.903 13.3907 19.5754 14.0253 18.9878C14.6597 18.4003 15.03 17.5995 15.0589 16.7554L15.4089 6.58155C15.4156 6.38654 15.3415 6.19617 15.2014 6.05247C15.0612 5.90864 14.8663 5.82344 14.6595 5.81688C14.4526 5.81033 14.2522 5.88301 14.1022 6.01782C13.9524 6.1525 13.8653 6.33793 13.8586 6.53297L13.5085 16.706L13.5085 16.7063C13.4909 17.1685 13.2873 17.6052 12.9418 17.9249C12.5965 18.2444 12.1363 18.4221 11.6583 18.4218M11.6584 19.9L5.00744 18.3218M11.6584 19.9H5.00744L5.00709 19.9C4.12454 19.903 3.27617 19.5759 2.64167 18.989C2.0073 18.4022 1.63664 17.6021 1.60689 16.7587L1.25685 6.58155C1.25015 6.38654 1.32433 6.19617 1.46441 6.05247C1.60463 5.90864 1.79946 5.82344 2.00632 5.81688C2.21319 5.81033 2.41359 5.88301 2.56356 6.01782C2.71339 6.1525 2.80051 6.33793 2.80721 6.53296L2.90715 6.52953L2.80721 6.53297L3.15725 16.7093L3.15728 16.7099C3.1758 17.1715 3.37985 17.6073 3.72522 17.9262C4.07047 18.2449 4.53013 18.4222 5.00751 18.4218M11.6584 19.9L5.00744 18.3218M11.6583 18.4218L11.6584 18.3218V18.4218H11.6583ZM11.6583 18.4218H5.00751M5.00751 18.4218L5.00744 18.3218M5.00751 18.4218H5.00744V18.3218M4.80147 2.27429L4.80149 2.27419L13.0778 3.22855V3.32855H13.078C13.078 3.32855 13.078 3.32855 13.0781 3.32855L15.7907 3.32855C15.9975 3.32855 16.1951 3.40749 16.3402 3.5468L16.4095 3.47467L16.3402 3.5468C16.4853 3.68617 16.5667 3.87413 16.5667 4.06887C16.5667 4.26388 16.486 4.45177 16.3411 4.59095C16.196 4.73026 15.9984 4.8092 15.7915 4.8092H0.87512C0.668266 4.8092 0.470659 4.73026 0.325579 4.59095C0.180636 4.45177 0.1 4.26388 0.1 4.06887C0.1 3.87387 0.180636 3.68598 0.325579 3.5468C0.470659 3.40749 0.668266 3.32855 0.87512 3.32855L3.58773 3.32855L3.58799 3.22855V3.32855H3.58783C3.88873 3.3293 4.1798 3.22258 4.40429 3.02818C4.62891 2.83366 4.77094 2.56508 4.80147 2.27429ZM6.13028 3.18698L6.06558 3.32855H6.22123H10.4463H10.6018L10.5373 3.18707C10.4267 2.94429 10.3543 2.68715 10.3225 2.4241C10.298 2.19145 10.1845 1.97668 10.0054 1.82092C9.82616 1.66508 9.59378 1.57921 9.35338 1.57898H9.35329H7.31426L7.31416 1.57898C7.07376 1.57921 6.84138 1.66508 6.66214 1.82092C6.48301 1.97666 6.36959 2.1914 6.34502 2.42402C6.31297 2.68732 6.24113 2.94443 6.13028 3.18698ZM7.00248 7.9354V15.0908V15.0941C7.00248 15.2892 6.92184 15.477 6.7769 15.6162C6.63182 15.7555 6.43421 15.8345 6.22736 15.8345C6.0205 15.8345 5.8229 15.7555 5.67781 15.6162C5.53287 15.477 5.45224 15.2892 5.45224 15.0941V7.9354C5.45224 7.74039 5.53287 7.55251 5.67781 7.41332C5.8229 7.27401 6.0205 7.19507 6.22736 7.19507C6.43421 7.19507 6.63182 7.27401 6.7769 7.41332C6.92184 7.55251 7.00248 7.74039 7.00248 7.9354ZM11.2153 7.9354V15.0908V15.0941C11.2153 15.2892 11.1347 15.477 10.9897 15.6162C10.8446 15.7555 10.647 15.8345 10.4402 15.8345C10.2333 15.8345 10.0357 15.7555 9.89064 15.6162C9.7457 15.477 9.66506 15.2892 9.66506 15.0941V7.9354C9.66506 7.74039 9.7457 7.55251 9.89064 7.41332C10.0357 7.27401 10.2333 7.19507 10.4402 7.19507C10.647 7.19507 10.8446 7.27401 10.9897 7.41332C11.1347 7.55251 11.2153 7.74039 11.2153 7.9354Z" fill="#E73A39" stroke="white" stroke-width="0.2"/>
</svg>
