<svg width="12" height="12" viewBox="0 0 12 12" fill="none" xmlns="http://www.w3.org/2000/svg">
<g clip-path="url(#clip0_13177_26494)">
<rect width="12" height="12" fill="white" fill-opacity="0.01"/>
<g clip-path="url(#clip1_13177_26494)">
<path fill-rule="evenodd" clip-rule="evenodd" d="M8.121 0.09054C8.16156 0.125792 8.19407 0.169351 8.21633 0.218263C8.23858 0.267176 8.25007 0.320302 8.25 0.37404V0.749024H8.625C8.92337 0.749024 9.20952 0.867551 9.4205 1.07853C9.63147 1.28951 9.75 1.57566 9.75 1.87402V11.249H10.875C10.9745 11.249 11.0698 11.2885 11.1402 11.3589C11.2105 11.4292 11.25 11.5246 11.25 11.624C11.25 11.7235 11.2105 11.8189 11.1402 11.8892C11.0698 11.9595 10.9745 11.999 10.875 11.999H1.125C1.02554 11.999 0.930161 11.9595 0.859835 11.8892C0.789509 11.8189 0.75 11.7235 0.75 11.624C0.75 11.5246 0.789509 11.4292 0.859835 11.3589C0.930161 11.2885 1.02554 11.249 1.125 11.249H2.25V1.12404C2.25001 1.03369 2.28265 0.946381 2.3419 0.878172C2.40115 0.809963 2.48304 0.765439 2.5725 0.75279L7.8225 0.00279004C7.87564 -0.00479849 7.92978 -0.000891483 7.98128 0.014247C8.03278 0.0293855 8.08042 0.0554027 8.121 0.09054ZM8.25 11.249V1.49902H8.625C8.72446 1.49902 8.81984 1.53853 8.89017 1.60886C8.96049 1.67919 9 1.77457 9 1.87402V11.249H8.25ZM7.5 0.80679V11.249H3V1.44954L7.5 0.80679ZM6.375 7.49902C6.168 7.49902 6 7.16302 6 6.74902C6 6.33502 6.168 5.99902 6.375 5.99902C6.582 5.99902 6.75 6.33502 6.75 6.74902C6.75 7.16302 6.582 7.49902 6.375 7.49902Z" fill="#212529"/>
</g>
</g>
<defs>
<clipPath id="clip0_13177_26494">
<rect width="12" height="12" fill="white"/>
</clipPath>
<clipPath id="clip1_13177_26494">
<rect width="12" height="12" fill="white"/>
</clipPath>
</defs>
</svg>
