<svg width="13" height="13" viewBox="0 0 13 13" fill="none" xmlns="http://www.w3.org/2000/svg">
<path d="M7.64719 1.45813L7.64719 10.301L11.5105 6.43771C11.8193 6.12896 12.3259 6.12896 12.6347 6.43771C12.7081 6.51095 12.7663 6.59795 12.806 6.69372C12.8458 6.78949 12.8662 6.89215 12.8662 6.99584C12.8662 7.09952 12.8458 7.20219 12.806 7.29796C12.7663 7.39373 12.7081 7.48072 12.6347 7.55396L7.41761 12.771C7.34437 12.8444 7.25737 12.9027 7.1616 12.9424C7.06583 12.9821 6.96317 13.0026 6.85948 13.0026C6.7558 13.0026 6.65314 12.9821 6.55737 12.9424C6.4616 12.9027 6.3746 12.8444 6.30136 12.771L1.08428 7.55396C1.01098 7.48067 0.952844 7.39365 0.913177 7.29789C0.873511 7.20213 0.853095 7.09949 0.853095 6.99584C0.853095 6.89218 0.873511 6.78954 0.913177 6.69378C0.952844 6.59802 1.01098 6.51101 1.08428 6.43771C1.15757 6.36442 1.24458 6.30628 1.34035 6.26661C1.43611 6.22694 1.53875 6.20653 1.6424 6.20653C1.74606 6.20653 1.84869 6.22694 1.94446 6.26661C2.04022 6.30628 2.12723 6.36442 2.20053 6.43771L6.06386 10.301L6.06386 1.45813C6.06386 1.02271 6.42011 0.666462 6.85553 0.666462C7.29094 0.666462 7.64719 1.02271 7.64719 1.45813Z" fill="#009FDA"/>
</svg>
