<svg width="32" height="32" viewBox="0 0 32 32" fill="none" xmlns="http://www.w3.org/2000/svg">
<g clip-path="url(#clip0_15667_13734)">
<path fill-rule="evenodd" clip-rule="evenodd" d="M28 14H4C3.46957 14 2.96086 14.2107 2.58579 14.5858C2.21071 14.9609 2 15.4696 2 16V26C2 26.5304 2.21071 27.0391 2.58579 27.4142C2.96086 27.7893 3.46957 28 4 28H28C28.5304 28 29.0391 27.7893 29.4142 27.4142C29.7893 27.0391 30 26.5304 30 26V16C30 15.4696 29.7893 14.9609 29.4142 14.5858C29.0391 14.2107 28.5304 14 28 14ZM4 12C2.93913 12 1.92172 12.4214 1.17157 13.1716C0.421427 13.9217 0 14.9391 0 16L0 26C0 27.0609 0.421427 28.0783 1.17157 28.8284C1.92172 29.5786 2.93913 30 4 30H28C29.0609 30 30.0783 29.5786 30.8284 28.8284C31.5786 28.0783 32 27.0609 32 26V16C32 14.9391 31.5786 13.9217 30.8284 13.1716C30.0783 12.4214 29.0609 12 28 12H4Z" fill="white"/>
<path fill-rule="evenodd" clip-rule="evenodd" d="M30 22H2V20H30V22ZM4 25C4 24.7348 4.10536 24.4804 4.29289 24.2929C4.48043 24.1054 4.73478 24 5 24H17C17.2652 24 17.5196 24.1054 17.7071 24.2929C17.8946 24.4804 18 24.7348 18 25C18 25.2652 17.8946 25.5196 17.7071 25.7071C17.5196 25.8946 17.2652 26 17 26H5C4.73478 26 4.48043 25.8946 4.29289 25.7071C4.10536 25.5196 4 25.2652 4 25ZM4 17C4 16.7348 4.10536 16.4804 4.29289 16.2929C4.48043 16.1054 4.73478 16 5 16H23C23.2652 16 23.5196 16.1054 23.7071 16.2929C23.8946 16.4804 24 16.7348 24 17C24 17.2652 23.8946 17.5196 23.7071 17.7071C23.5196 17.8946 23.2652 18 23 18H5C4.73478 18 4.48043 17.8946 4.29289 17.7071C4.10536 17.5196 4 17.2652 4 17ZM3 0C2.20435 0 1.44129 0.31607 0.87868 0.87868C0.31607 1.44129 0 2.20435 0 3L0 7C0 7.79565 0.31607 8.55871 0.87868 9.12132C1.44129 9.68393 2.20435 10 3 10H29C29.7956 10 30.5587 9.68393 31.1213 9.12132C31.6839 8.55871 32 7.79565 32 7V3C32 2.20435 31.6839 1.44129 31.1213 0.87868C30.5587 0.31607 29.7956 0 29 0L3 0ZM5 4C4.73478 4 4.48043 4.10536 4.29289 4.29289C4.10536 4.48043 4 4.73478 4 5C4 5.26522 4.10536 5.51957 4.29289 5.70711C4.48043 5.89464 4.73478 6 5 6H11C11.2652 6 11.5196 5.89464 11.7071 5.70711C11.8946 5.51957 12 5.26522 12 5C12 4.73478 11.8946 4.48043 11.7071 4.29289C11.5196 4.10536 11.2652 4 11 4H5ZM24.854 4.854L25.646 5.646C25.6924 5.69256 25.7476 5.72951 25.8084 5.75471C25.8691 5.77992 25.9342 5.79289 26 5.79289C26.0658 5.79289 26.1309 5.77992 26.1916 5.75471C26.2524 5.72951 26.3076 5.69256 26.354 5.646L27.146 4.854C27.2161 4.78407 27.2639 4.6949 27.2832 4.59779C27.3026 4.50068 27.2927 4.40001 27.2548 4.30854C27.2169 4.21706 27.1526 4.13891 27.0703 4.08398C26.9879 4.02905 26.891 3.99982 26.792 4H25.208C25.109 3.99982 25.0121 4.02905 24.9297 4.08398C24.8474 4.13891 24.7831 4.21706 24.7452 4.30854C24.7073 4.40001 24.6974 4.50068 24.7168 4.59779C24.7361 4.6949 24.7839 4.78407 24.854 4.854V4.854Z" fill="white"/>
</g>
<defs>
<clipPath id="clip0_15667_13734">
<rect width="32" height="32" fill="white"/>
</clipPath>
</defs>
</svg>
