<svg width="63" height="63" viewBox="0 0 63 63" fill="none" xmlns="http://www.w3.org/2000/svg">
<g clip-path="url(#clip0_11232_66397)">
<path fill-rule="evenodd" clip-rule="evenodd" d="M31.5 59.0625C38.81 59.0625 45.8207 56.1586 50.9896 50.9896C56.1586 45.8207 59.0625 38.81 59.0625 31.5C59.0625 24.19 56.1586 17.1793 50.9896 12.0104C45.8207 6.8414 38.81 3.9375 31.5 3.9375C24.19 3.9375 17.1793 6.8414 12.0104 12.0104C6.8414 17.1793 3.9375 24.19 3.9375 31.5C3.9375 38.81 6.8414 45.8207 12.0104 50.9896C17.1793 56.1586 24.19 59.0625 31.5 59.0625ZM31.5 63C39.8543 63 47.8665 59.6813 53.7739 53.7739C59.6813 47.8665 63 39.8543 63 31.5C63 23.1457 59.6813 15.1335 53.7739 9.22614C47.8665 3.31874 39.8543 0 31.5 0C23.1457 0 15.1335 3.31874 9.22614 9.22614C3.31874 15.1335 0 23.1457 0 31.5C0 39.8543 3.31874 47.8665 9.22614 53.7739C15.1335 59.6813 23.1457 63 31.5 63Z" fill="#00549F"/>
<path fill-rule="evenodd" clip-rule="evenodd" d="M15.75 31.5005C15.75 32.0227 15.9574 32.5234 16.3266 32.8927C16.6958 33.2619 17.1966 33.4693 17.7188 33.4693H40.5287L32.0749 41.9192C31.8918 42.1022 31.7466 42.3195 31.6476 42.5587C31.5485 42.7978 31.4975 43.0542 31.4975 43.313C31.4975 43.5719 31.5485 43.8282 31.6476 44.0674C31.7466 44.3066 31.8918 44.5239 32.0749 44.7069C32.2579 44.89 32.4752 45.0352 32.7144 45.1342C32.9536 45.2333 33.2099 45.2843 33.4688 45.2843C33.7276 45.2843 33.9839 45.2333 34.2231 45.1342C34.4623 45.0352 34.6796 44.89 34.8626 44.7069L46.6751 32.8944C46.8585 32.7115 47.0039 32.4943 47.1032 32.2551C47.2024 32.0159 47.2535 31.7595 47.2535 31.5005C47.2535 31.2416 47.2024 30.9852 47.1032 30.746C47.0039 30.5068 46.8585 30.2895 46.6751 30.1067L34.8626 18.2942C34.6796 18.1111 34.4623 17.9659 34.2231 17.8668C33.9839 17.7678 33.7276 17.7168 33.4688 17.7168C33.2099 17.7168 32.9536 17.7678 32.7144 17.8668C32.4752 17.9659 32.2579 18.1111 32.0749 18.2942C31.8918 18.4772 31.7466 18.6945 31.6476 18.9337C31.5485 19.1728 31.4975 19.4292 31.4975 19.688C31.4975 19.9469 31.5485 20.2032 31.6476 20.4424C31.7466 20.6816 31.8918 20.8989 32.0749 21.0819L40.5287 29.5318H17.7188C17.1966 29.5318 16.6958 29.7392 16.3266 30.1084C15.9574 30.4776 15.75 30.9784 15.75 31.5005Z" fill="#00549F"/>
</g>
<defs>
<clipPath id="clip0_11232_66397">
<rect width="63" height="63" fill="white"/>
</clipPath>
</defs>
</svg>
