<svg width="13" height="13" viewBox="0 0 13 13" fill="none" xmlns="http://www.w3.org/2000/svg">
<path d="M7.21848 1.45813L7.21848 10.301L11.0818 6.43771C11.3906 6.12896 11.8972 6.12896 12.206 6.43771C12.2794 6.51095 12.3376 6.59795 12.3773 6.69372C12.4171 6.78949 12.4375 6.89215 12.4375 6.99584C12.4375 7.09952 12.4171 7.20219 12.3773 7.29796C12.3376 7.39373 12.2794 7.48072 12.206 7.55396L6.9889 12.771C6.91566 12.8444 6.82866 12.9027 6.73289 12.9424C6.63712 12.9821 6.53446 13.0026 6.43077 13.0026C6.32709 13.0026 6.22443 12.9821 6.12865 12.9424C6.03288 12.9027 5.94589 12.8444 5.87265 12.771L0.655565 7.55396C0.582272 7.48067 0.524133 7.39365 0.484467 7.29789C0.444799 7.20213 0.424384 7.09949 0.424384 6.99584C0.424384 6.89218 0.444799 6.78955 0.484467 6.69378C0.524133 6.59802 0.582272 6.51101 0.655565 6.43771C0.72886 6.36442 0.815873 6.30628 0.911636 6.26661C1.0074 6.22694 1.11004 6.20653 1.21369 6.20653C1.31735 6.20653 1.41998 6.22694 1.51575 6.26661C1.61151 6.30628 1.69852 6.36442 1.77182 6.43771L5.63515 10.301L5.63515 1.45813C5.63515 1.02271 5.9914 0.666462 6.42682 0.666462C6.86223 0.666462 7.21848 1.02271 7.21848 1.45813Z" fill="#DC3545"/>
</svg>
